<?xml version="1.0" standalone="no"?>
<!DOCTYPE svg PUBLIC "-//W3C//DTD SVG 20010904//EN"
 "http://www.w3.org/TR/2001/REC-SVG-20010904/DTD/svg10.dtd">
<svg version="1.0" xmlns="http://www.w3.org/2000/svg"
 width="100.000000pt" height="100.000000pt" viewBox="0 0 100.000000 100.000000"
 preserveAspectRatio="xMidYMid meet">
<metadata>
Created by potrace 1.11, written by Peter Selinger 2001-2013
</metadata>
<g transform="translate(0.000000,100.000000) scale(0.100000,-0.100000)"
fill="#000000" stroke="none">
<path d="M488 943 c-64 -40 -63 -128 2 -166 50 -30 104 -16 133 33 30 50 16
104 -33 133 -35 21 -67 21 -102 0z"/>
<path d="M233 673 c-90 -95 -105 -129 -82 -184 14 -36 62 -69 99 -69 24 0 26
6 59 143 18 78 39 152 47 163 15 25 10 34 -20 34 -12 0 -52 -33 -103 -87z"/>
<path d="M720 687 l0 -64 -40 -18 -40 -18 -28 25 c-81 77 -98 88 -149 99 -40
9 -56 9 -67 0 -7 -6 -28 -70 -46 -142 -39 -158 -40 -156 73 -253 l77 -67 0
-89 c0 -94 11 -120 50 -120 42 0 50 24 50 153 l0 122 -60 63 c-33 35 -60 64
-60 65 10 48 39 131 46 130 5 -2 31 -19 57 -40 52 -39 47 -38 119 -8 16 6 18
-10 20 -236 3 -209 5 -244 18 -244 13 0 15 36 18 254 2 241 3 255 22 268 26
18 26 49 0 65 -16 10 -20 24 -20 65 0 46 -3 53 -20 53 -18 0 -20 -7 -20 -63z"/>
<path d="M294 303 c-10 -32 -40 -90 -67 -130 -39 -56 -48 -77 -43 -97 7 -30
40 -42 70 -26 25 14 104 136 125 195 16 46 20 39 -41 93 l-26 24 -18 -59z"/>
</g>
</svg>
